<svg data-v-0dd9719b="" version="1.0" xmlns="http://www.w3.org/2000/svg" xmlns:xlink="http://www.w3.org/1999/xlink" width="100%" height="100%" viewBox="0 0 340.000000 250.000000" preserveAspectRatio="xMidYMid meet" color-interpolation-filters="sRGB" style="margin: auto;"> <rect data-v-0dd9719b="" x="0" y="0" width="100%" height="100%" fill="#fff" fill-opacity="1" class="background"></rect> <rect data-v-0dd9719b="" x="0" y="0" width="100%" height="100%" fill="url(#watermark)" fill-opacity="1" class="watermarklayer"></rect> <g data-v-0dd9719b="" fill="#25bcbd" class="icon-text-wrapper icon-svg-group iconsvg" transform="translate(48.26000213623047,94.87861061096191)"><g class="iconsvg-imagesvg" transform="translate(0,0)"><g><rect fill="#25bcbd" fill-opacity="0" stroke-width="2" x="0" y="0" width="60" height="60.24277839693966" class="image-rect"></rect> <svg x="0" y="0" width="60" height="60.24277839693966" filtersec="colorsb673413471" class="image-svg-svg primary" style="overflow: visible;"><svg xmlns="http://www.w3.org/2000/svg" viewBox="0 8.699999809265137 618.0999755859375 620.5999755859375"><path d="M136.5 183.6H149c1.7 0 3-1.4 3-3v-12.5c0-1.7-1.4-3-3-3h-12.5c-1.7 0-3 1.4-3 3v12.5c-.1 1.7 1.3 3 3 3zM112.9 280.3v14.8c0 2 1.6 3.6 3.6 3.6h14.8c2 0 3.6-1.6 3.6-3.6v-14.8c0-2-1.6-3.6-3.6-3.6h-14.8c-2 0-3.6 1.6-3.6 3.6zM36.1 305.8v-24.3c0-3.2-2.6-5.9-5.9-5.9H5.9c-3.2 0-5.9 2.6-5.9 5.9v24.3c0 3.2 2.6 5.9 5.9 5.9h24.3c3.2 0 5.9-2.7 5.9-5.9zM42.6 260.9h58.5c7.8 0 14.2-6.4 14.2-14.2v-58.5c0-7.8-6.4-14.2-14.2-14.2H42.6c-7.8 0-14.2 6.4-14.2 14.2v58.5c0 7.8 6.4 14.2 14.2 14.2zM154.2 148.9h65.5c8.7 0 15.9-7.1 15.9-15.9V67.6c0-8.7-7.1-15.9-15.9-15.9h-65.5c-8.7 0-15.9 7.1-15.9 15.9v65.5c.1 8.7 7.2 15.8 15.9 15.8zM478.5 160h83.7c4.9 0 9.5.9 13.8 2.6-13.5-23.1-29.9-44.3-48.7-63.1C471.2 43.4 393.6 8.7 307.9 8.7V123.8c53.5 0 102 21.5 137.2 56.4 6.4-12 19-20.2 33.4-20.2zM261.7 118.2c-2.3 0-4.1 1.8-4.1 4.1v16.9c0 2.3 1.8 4.1 4.1 4.1h16.9c2.3 0 4.1-1.8 4.1-4.1v-16.9c0-2.3-1.8-4.1-4.1-4.1h-16.9zM77.5 153h26.1c3.5 0 6.3-2.8 6.3-6.3v-26.1c0-3.5-2.8-6.3-6.3-6.3H77.5c-3.5 0-6.3 2.8-6.3 6.3v26.1c0 3.4 2.9 6.3 6.3 6.3zM282.1 530.8h-13.2c-1.8 0-3.2 1.4-3.2 3.2v13.2c0 1.8 1.4 3.2 3.2 3.2h13.2c1.8 0 3.2-1.4 3.2-3.2V534c0-1.8-1.5-3.2-3.2-3.2zM599.8 281.4c0 20.7-16.9 37.7-37.7 37.7H503c0 107.8-87.4 195.1-195.2 195.1V629.3c85.7 0 163.3-34.7 219.4-90.9 56.1-56.1 90.9-133.7 90.9-219.4 0-37-6.5-72.5-18.4-105.4v67.8zM112.1 473.8H78.8c-4.4 0-8.1 3.6-8.1 8.1v33.3c0 4.4 3.6 8.1 8.1 8.1h33.3c4.4 0 8.1-3.6 8.1-8.1v-33.3c-.1-4.5-3.7-8.1-8.1-8.1zM282 460.2v-24.3c0-3.2-2.6-5.9-5.9-5.9h-24.3c-3.2 0-5.9 2.6-5.9 5.9v24.3c0 3.2 2.6 5.9 5.9 5.9h24.3c3.3 0 5.9-2.7 5.9-5.9zM230 493.4h-65.4c-8.7 0-15.9 7.1-15.9 15.9v65.4c0 8.7 7.1 15.9 15.9 15.9H230c8.7 0 15.9-7.1 15.9-15.9v-65.4c-.1-8.7-7.2-15.9-15.9-15.9zM253.2 390v-48.6c0-6.5-5.3-11.8-11.8-11.8h-48.6c-6.5 0-11.8 5.3-11.8 11.8V390c0 6.5 5.3 11.8 11.8 11.8h48.6c6.5 0 11.8-5.3 11.8-11.8z" fill="#25bcbd"></path><linearGradient id="a23ca9a45-1be7-40b5-9436-d6ce29d47b8b" gradientUnits="userSpaceOnUse" x1="20.209" y1="314.098" x2="582.468" y2="314.098"><stop offset="0" stop-color="#25bcbd"></stop><stop offset="1" stop-color="#c2d72e"></stop></linearGradient><path d="M179.9 300.5c2.1.7 4.3 1.1 6.6 1.1h83.7c2.3 0 4.6-.4 6.6-1.1l37.4 37.4c-1.3 2.7-2 5.7-2 8.8v83.7c0 11.2 9.1 20.3 20.3 20.3h83.7c11.2 0 20.3-9.1 20.3-20.3v-83.7c0-3.2-.7-6.2-2-8.8l37.4-37.4c2.1.7 4.3 1.1 6.6 1.1h83.7c11.2 0 20.3-9.1 20.3-20.3v-83.7c0-11.2-9.1-20.3-20.3-20.3h-83.7c-11.2 0-20.3 9.1-20.3 20.3v83.7c0 2.8.6 5.5 1.6 7.9l-38.1 38.1c-1.8-.5-3.6-.8-5.6-.8h-83.7c-1.9 0-3.8.3-5.6.8l-38.1-38.1c1-2.4 1.6-5.1 1.6-7.9v-83.7c0-11.2-9.1-20.3-20.3-20.3h-83.7c-11.2 0-20.3 9.1-20.3 20.3v83.7c0 2.8.6 5.5 1.6 7.9l-38.1 38.1c-1.8-.5-3.6-.8-5.6-.8H40.5c-11.2 0-20.3 9.1-20.3 20.3v83.7c0 11.2 9.1 20.3 20.3 20.3h83.7c11.2 0 20.3-9.1 20.3-20.3v-83.7c0-3.2-.7-6.2-2-8.8l37.4-37.5z" fill="url(#a23ca9a45-1be7-40b5-9436-d6ce29d47b8b)"></path><path d="M189.8 434.5c-1.6 0-2.9 1.3-2.9 2.9v12.1c0 1.6 1.3 2.9 2.9 2.9H202c1.6 0 2.9-1.3 2.9-2.9v-12.1c0-1.6-1.3-2.9-2.9-2.9h-12.2z" fill="#25bcbd"></path></svg></svg> <!----></g></g> <g transform="translate(67,6.84514045715332)"><g data-gra="path-name" fill-rule="" class="tp-name iconsvg-namesvg" transform="translate(0,0)"><g transform="scale(1)"><g><path d="M29.15 2.3L29.15 2.3Q24.93 2.3 22.81-2.13L22.81-2.13Q21.38-0.56 18.62 1.29L18.62 1.29Q17.61 1.99 16.7 1.99L16.7 1.99Q15.66 1.99 14.78 1.01L14.78 1.01Q14.51 0.7 14.51 0.35L14.51 0.35Q14.51-0.21 15.41-0.8L15.41-0.8Q18.62-2.96 21.2-5.96L21.2-5.96Q19.25-12.07 18.66-20.71L18.66-20.71 9.07-20.71Q8.86-20.71 8.86-19.67L8.86-19.67 8.86-16.08 15.73-16.08Q16.74-16.08 17.12-15.69 17.5-15.31 17.5-15.1L17.5-15.1Q17.37-9.1 17.19-6.9L17.19-6.9Q16.98-4.5 16.56-3.94L16.56-3.94Q15.59-2.75 13.81-2.58L13.81-2.58Q13.18-2.48 11.19-2.48L11.19-2.48Q8.47-2.58 8.47-4.04L8.47-4.04Q8.47-4.99 10.46-4.99L10.46-4.99 12-4.95Q12.9-4.95 13.08-11.68L13.08-11.68 13.08-11.93Q13.08-12.97 12.8-13.39L12.8-13.39Q12.8-13.29 12.17-13.29L12.17-13.29Q11.19-13.29 8.86-13.53L8.86-13.53Q8.79-4.11 6.31 0.94L6.31 0.94Q5.54 2.23 4.22 2.23L4.22 2.23Q3.35 2.23 2.41 1.5L2.41 1.5Q1.81 1.01 1.81 0.42L1.81 0.42Q1.81 0.07 2.02-0.28L2.02-0.28Q3.38-3.1 3.94-7.11L3.94-7.11Q4.25-9.83 4.25-13.81L4.25-13.81 4.25-21.41Q4.25-22.07 4.95-22.77 5.65-23.47 7.15-23.47L7.15-23.47 18.45-23.47Q18.31-26.26 18.31-27.58L18.31-27.58Q18.31-29.01 20.57-29.01L20.57-29.01Q22.91-29.01 22.91-27.51L22.91-27.51Q22.91-25.52 23.01-23.47L23.01-23.47 29.08-23.47Q26.78-25.39 24.37-26.88L24.37-26.88Q23.78-27.23 23.78-27.62L23.78-27.62Q23.78-27.83 24.03-28.07L24.03-28.07Q24.79-28.87 25.7-28.87L25.7-28.87Q26.64-28.87 27.41-28.28L27.41-28.28Q29.6-26.99 30.62-26.26L30.62-26.26Q31.24-25.77 31.24-25.25L31.24-25.25Q31.24-24.79 30.72-24.23L30.72-24.23 29.95-23.47 31.84-23.47Q34.03-23.47 34.03-22.11L34.03-22.11Q34.03-20.71 31.84-20.71L31.84-20.71 23.15-20.71Q23.75-13.6 24.51-10.64L24.51-10.64Q25.59-12.27 26.99-16.25L26.99-16.25Q27.41-17.68 28.98-17.68L28.98-17.68Q29.47-17.68 30.02-17.54L30.02-17.54Q31.56-17.16 31.56-16.32L31.56-16.32Q31.56-16.14 31.49-15.94L31.49-15.94Q29.43-10.43 25.94-5.72L25.94-5.72Q27.9-0.59 29.4-0.59L29.4-0.59Q29.54-0.59 29.92-3L29.92-3Q30.02-4.32 30.44-5.06L30.44-5.06Q31-6.07 31.91-6.07L31.91-6.07Q32.53-6.07 33.28-5.6 34.03-5.13 34.03-3.56L34.03-3.56 34-2.93Q33.61-0.14 32.67 0.94L32.67 0.94Q31.56 2.3 29.15 2.3ZM58.44 2.55L58.44 2.55Q56.25 2.55 56.25 1.19L56.25 1.19 56.25-25.04Q56.25-25.7 56.94-26.4 57.64-27.09 59.14-27.09L59.14-27.09 67.06-27.09Q69.57-27.09 69.57-25.46L69.57-25.46Q69.57-25.18 69.46-24.83L69.46-24.83Q68.07-20.57 65.52-15.38L65.52-15.38Q69.78-11.37 69.78-7.15L69.78-7.15Q69.78-4.04 67.68-2.65L67.68-2.65Q66.39-1.81 63.39-1.81L63.39-1.81Q60.81-1.95 60.81-3.52L60.81-3.52Q60.81-3.77 60.95-3.91L60.95-3.91Q61.62-4.5 63.15-4.5L63.15-4.5 63.32-4.5Q64.09-4.5 64.48-4.71L64.48-4.71Q65.42-5.3 65.42-7.67L65.42-7.67Q65.42-10.84 62.91-13.81L62.91-13.81Q61.79-14.96 61.79-15.9L61.79-15.9Q61.79-16.18 61.89-16.46L61.89-16.46Q63.32-19.74 65.03-24.48L65.03-24.48 60.85-24.48Q60.64-24.48 60.64-23.43L60.64-23.43 60.64 1.19Q60.64 2.55 58.44 2.55ZM51.92 0.49L51.92 0.49 43.69 0.49Q42.19 0.49 41.5-0.21 40.8-0.91 40.8-1.57L40.8-1.57 40.8-7.99Q41.29-8.51 41.29-8.61L41.29-8.61 41.15-8.54Q40.14-7.95 39.3-7.95L39.3-7.95Q38.18-7.95 37.45-9.03L37.45-9.03Q37.31-9.24 37.31-9.45L37.31-9.45Q37.31-9.97 38.25-10.5L38.25-10.5Q42.12-12.73 45.71-16.32L45.71-16.32 39.44-16.32Q37.42-16.32 37.42-17.54L37.42-17.54Q37.42-18.73 39.44-18.73L39.44-18.73 43.87-18.73 43.87-22.81 40.94-22.81Q38.92-22.81 38.92-23.99L38.92-23.99Q38.92-25.18 40.94-25.18L40.94-25.18 43.87-25.18 43.87-27.51Q43.87-28.77 45.99-28.77L45.99-28.77Q48.09-28.77 48.09-27.51L48.09-27.51 48.09-25.18 49.72-25.18Q51.02-25.18 51.54-24.65 52.06-24.13 52.06-23.68L52.06-23.68 52.06-25.77 51.99-25.66 52.2-26.22Q52.72-27.44 54.01-27.44L54.01-27.44Q54.54-27.44 55.23-27.23L55.23-27.23Q56.49-26.85 56.49-26.22L56.49-26.22Q56.49-26.08 56.42-25.94L56.42-25.94Q54.85-22.46 52.24-18.73L52.24-18.73 54.15-18.73Q56.18-18.73 56.18-17.54L56.18-17.54Q56.18-16.32 54.15-16.32L54.15-16.32 50.32-16.32Q49.06-14.89 47.04-12.9L47.04-12.9 51.92-12.9Q53.42-12.9 54.12-12.2 54.82-11.51 54.82-10.84L54.82-10.84 54.82-1.57Q54.82-0.91 54.12-0.21 53.42 0.49 51.92 0.49ZM45.16-1.74L50.32-1.74Q50.53-1.74 50.53-2.79L50.53-2.79 50.53-5.3 44.95-5.3 44.95-2.79Q44.95-1.74 45.16-1.74L45.16-1.74ZM44.95-7.43L50.53-7.43 50.53-9.66Q50.53-10.71 50.32-10.71L50.32-10.71 44.95-10.71 44.95-7.43ZM48.09-22.81L48.09-19.14Q48.26-19.14 50.49-22.81L50.49-22.81 48.09-22.81ZM75.35 1.78L75.35 1.78 75.04 1.78Q74.24 1.78 73.72 1.46L73.72 1.46 73.05 0.8 73.61 1.08Q73.02 0.63 73.02 0.28L73.02 0.28Q73.02 0.1 73.12-0.07L73.12-0.07Q75.15-4.46 75.15-12.2L75.15-12.2Q75.15-13.25 76.85-13.25L76.85-13.25Q79.09-13.25 79.09-12.13L79.09-12.13Q79.09-11.16 79.02-8.96L79.02-8.96Q80.1-5.68 80.31-5.47L80.31-5.47 80.31-15.97 75.49-15.97Q73.44-15.97 73.44-17.23L73.44-17.23Q73.44-18.45 75.49-18.45L75.49-18.45 79.75-18.45 79.75-22.6 76.71-22.6Q74.69-22.6 74.69-23.82L74.69-23.82Q74.69-25 76.71-25L76.71-25 79.75-25 79.75-27.79Q79.75-29.05 81.88-29.05L81.88-29.05Q83.97-29.05 83.97-27.79L83.97-27.79 83.97-25 86.86-25Q88.88-25 88.88-23.82L88.88-23.82Q88.88-22.6 86.86-22.6L86.86-22.6 83.97-22.6 83.97-18.45 87.42-18.45Q89.48-18.45 89.48-17.23L89.48-17.23Q89.48-15.97 87.42-15.97L87.42-15.97 84.46-15.97 84.46-11.16 87.04-11.16Q89.06-11.16 89.06-9.97L89.06-9.97Q89.06-8.75 87.04-8.75L87.04-8.75 84.46-8.75 84.46-2.09Q86.83-1.05 92.13-1.05L92.13-1.05Q100.46-1.05 104.05-1.08L104.05-1.08 104.4-1.08Q106.08-1.08 106.08-0.49L106.08-0.49Q106.08-0.38 105.8 0.31L105.8 0.31Q105.27 1.67 103.18 1.67L103.18 1.67 92.13 1.67Q86.13 1.67 82.82 0.45L82.82 0.45Q79.09-1.01 78.18-2.62L78.18-2.62Q77.97-1.39 76.82 0.94L76.82 0.94Q76.37 1.71 75.35 1.78ZM94.6-2.75L94.6-2.75Q93.63-2.75 92.86-3.66L92.86-3.66Q92.48-4.08 92.48-4.25L92.48-4.25Q92.48-4.43 93.28-4.99L93.28-4.99Q95.16-6.42 97.11-8.93L97.11-8.93Q95.75-13.67 95.27-20.96L95.27-20.96 93.35-20.96Q93.14-20.96 93.14-19.91L93.14-19.91 93.14-10.25 93.98-10.74Q94.92-11.3 95.61-11.3L95.61-11.3Q96.59-11.3 96.97-10.15L96.97-10.15 97.01-10.01Q97.01-9.35 89.97-5.23L89.97-5.23Q89.09-4.71 88.4-4.71L88.4-4.71Q87.38-4.71 86.79-5.86L86.79-5.86Q86.69-6.03 86.69-6.21L86.69-6.21Q86.69-6.63 87.38-7.01 88.08-7.39 89.02-7.92L89.02-7.92 89.02-21.2Q89.02-21.86 89.72-22.56 90.42-23.26 91.92-23.26L91.92-23.26 95.09-23.26Q94.95-26.68 94.95-27.86L94.95-27.86Q94.95-29.05 97.04-29.05L97.04-29.05Q99.14-29.05 99.14-27.76L99.14-27.76Q99.21-25.52 99.24-23.26L99.24-23.26 104.16-23.26Q106.14-23.26 106.14-22.11L106.14-22.11Q106.14-20.96 104.16-20.96L104.16-20.96 99.35-20.96Q99.76-15.69 100.11-13.91L100.11-13.91Q100.39-14.44 101.37-17.33L101.37-17.33Q101.68-18.48 102.9-18.48L102.9-18.48Q103.43-18.48 104.05-18.31L104.05-18.31Q105.24-17.99 105.24-17.44L105.24-17.44Q105.24-17.3 105.2-17.19L105.2-17.19Q103.81-12.87 101.23-8.82L101.23-8.82Q102.24-5.86 102.66-5.86L102.66-5.86Q102.73-5.86 102.76-5.88 102.8-5.89 103.01-7.04L103.01-7.04Q103.08-8.19 103.36-8.72L103.36-8.72Q103.95-9.73 104.65-9.73L104.65-9.73Q105.06-9.73 105.48-9.41L105.48-9.41Q106.56-8.68 106.56-7.43L106.56-7.43 106.53-7.08Q106.21-4.92 105.48-4.08L105.48-4.08Q104.58-2.93 102.52-2.93L102.52-2.93Q99.66-2.93 98.51-5.34L98.51-5.34Q98.06-4.81 96.38-3.45L96.38-3.45Q95.4-2.75 94.6-2.75ZM102.83-24.1L102.83-24.1Q101.82-24.1 101.23-25.21L101.23-25.21Q100.91-25.77 100.6-26.15L100.6-26.15 100.32-26.5Q99.97-26.95 99.8-27.15 99.62-27.34 99.62-27.51L99.62-27.51Q99.62-27.83 100.3-28.18 100.98-28.52 101.61-28.52L101.61-28.52Q102.48-28.52 103.18-27.79L103.18-27.79Q105.2-25.56 105.2-25.21L105.2-25.21Q105.2-25.11 104.47-24.65L104.47-24.65Q103.56-24.1 102.83-24.1ZM112.49 2.2L112.49 2.2Q111.17 2.2 110.43 1.26L110.43 1.26Q110.29 1.05 110.29 0.87L110.29 0.87Q110.29 0.7 110.43 0.52L110.43 0.52Q110.96-0.21 112.42-0.73L112.42-0.73Q116.85-2.69 119.26-5.96L119.26-5.96Q121.45-9.03 122.36-14.09L122.36-14.09 111.97-14.09Q109.81-14.09 109.81-15.41L109.81-15.41Q109.81-16.74 111.97-16.74L111.97-16.74 122.71-16.74Q122.92-19.11 122.99-24.13L122.99-24.13 114.06-24.13Q111.9-24.13 111.9-25.46L111.9-25.46Q111.9-26.78 114.06-26.78L114.06-26.78 137.81-26.78Q139.97-26.78 139.97-25.46L139.97-25.46Q139.97-24.13 137.81-24.13L137.81-24.13 127.52-24.13Q127.45-19.67 127.17-16.74L127.17-16.74 139.76-16.74Q141.92-16.74 141.92-15.41L141.92-15.41Q141.92-14.09 139.76-14.09L139.76-14.09 126.86-14.09Q125.95-8.51 123.48-4.99L123.48-4.99Q120.48-0.7 114.48 1.81L114.48 1.81Q113.36 2.2 112.49 2.2ZM136.94 2.2L136.94 2.2 131.04 2.2Q127.66 2.2 126.58 1.17 125.5 0.14 125.5-2.2L125.5-2.2 125.5-10.81Q125.5-12.27 127.8-12.27L127.8-12.27Q130.1-12.27 130.1-10.81L130.1-10.81 130.1-2.2Q130.1-0.98 130.36-0.78 130.62-0.59 131.43-0.59L131.43-0.59 136.73-0.59Q137.39-0.59 137.7-2.02L137.7-2.02Q137.95-5.34 139.93-5.34L139.93-5.34Q140.49-5.34 141.15-5.02L141.15-5.02Q142.2-4.53 142.2-2.93L142.2-2.93 142.17-2.27Q141.78 0.1 140.7 1.15 139.62 2.2 136.94 2.2ZM156.99 2.2L156.99 2.2Q155.94 2.2 155.1 1.26L155.1 1.26Q154.82 0.98 154.82 0.66L154.82 0.66Q154.82 0.07 155.83-0.63L155.83-0.63Q159.43-3.38 161.2-8.02L161.2-8.02Q162.7-11.96 163.09-18.31L163.09-18.31 157.19-18.31Q155.03-18.31 155.03-19.63L155.03-19.63Q155.03-20.96 157.19-20.96L157.19-20.96 163.23-20.96Q163.33-24.06 163.33-27.23L163.33-27.23Q163.33-28.63 165.56-28.63L165.56-28.63Q167.76-28.63 167.76-27.23L167.76-27.23Q167.76-23.19 167.69-20.96L167.69-20.96 175.71-20.96Q177.87-20.96 177.87-19.63L177.87-19.63Q177.87-18.31 175.71-18.31L175.71-18.31 167.52-18.31Q167.48-16.98 167.27-15.41L167.27-15.41Q168.95-15.41 168.95-14.92L168.95-14.92 168.95-2.48Q168.95-1.22 169.14-1.03 169.33-0.84 169.71-0.84L169.71-0.84 173.55-0.84Q173.55-0.87 173.74-1.1 173.93-1.33 174.11-2.44L174.11-2.44Q174.21-3.7 174.73-4.74L174.73-4.74Q175.15-5.58 176.02-5.58L176.02-5.58Q176.58-5.58 177.31-5.23L177.31-5.23Q178.29-4.78 178.29-3.21L178.29-3.21 178.26-2.79Q177.98-0.38 177.09 0.68 176.2 1.74 173.79 1.74L173.79 1.74 169.26 1.74Q166.3 1.74 165.41 0.77 164.52-0.21 164.52-2.44L164.52-2.44 164.52-4.32Q163.79-2.16 159.15 1.33L159.15 1.33Q157.96 2.2 156.99 2.2ZM152.1 2.55L152.1 2.55Q149.91 2.55 149.91 1.22L149.91 1.22 149.91-14.05Q150.74-15.31 150.74-15.41L150.74-15.41Q150.67-15.41 149.66-14.12L149.66-14.12Q148.55-12.8 147.61-12.8L147.61-12.8Q146.56-12.8 145.72-14.3L145.72-14.3Q145.48-14.72 145.48-14.99L145.48-14.99Q145.48-15.34 145.93-15.83L145.93-15.83Q149.84-20.61 152.38-27.2L152.38-27.2Q152.87-28.52 154.27-28.52L154.27-28.52Q154.82-28.52 155.49-28.31L155.49-28.31Q156.85-27.9 156.85-27.23L156.85-27.23 156.81-26.99Q155.73-24.37 154.27-21.48L154.27-21.48 154.27 1.22Q154.27 2.55 152.1 2.55ZM174.14-22.49L174.14-22.49Q173.24-22.49 172.43-23.43L172.43-23.43Q171.11-24.9 169.57-26.22L169.57-26.22Q169.29-26.47 169.29-26.71L169.29-26.71Q169.29-27.02 169.71-27.34L169.71-27.34Q170.52-27.97 171.28-27.97L171.28-27.97Q172.08-27.97 172.85-27.34L172.85-27.34Q174.87-25.8 176.3-24.23L176.3-24.23Q176.55-23.96 176.55-23.85L176.55-23.85Q176.55-23.68 175.96-23.26L175.96-23.26Q174.98-22.49 174.14-22.49Z" transform="translate(-1.809999942779541, 29.049999237060547)"></path></g> <!----> <!----> <!----> <!----> <!----> <!----> <!----></g></g> <g data-gra="path-slogan" fill-rule="" class="tp-slogan iconsvg-slogansvg" fill="#25bcbd" transform="translate(4.999992370605469,37.599998474121094)"><rect x="0" height="1" y="3.9750003814697266" width="13.864997863769531"></rect> <rect height="1" y="3.9750003814697266" width="13.864997863769531" x="152.61499786376953"></rect> <g transform="translate(16.86499786376953,0)"><g transform="scale(1)"><path d="M8.06-6.05L8.06-6.05L6.94-6.05Q6.52-7.78 4.55-7.83L4.55-7.83Q1.83-7.69 1.73-4.36L1.73-4.36Q1.73-0.80 4.59-0.80L4.59-0.80Q6.56-0.84 7.03-3.19L7.03-3.19L8.16-3.19Q7.64 0.05 4.36 0.14L4.36 0.14Q0.61 0 0.52-4.31L0.52-4.31Q0.70-8.63 4.55-8.81L4.55-8.81Q7.59-8.72 8.06-6.05ZM10.69-5.06L15.19-5.06L15.19-8.58L16.36-8.58L16.36 0L15.19 0L15.19-3.98L10.69-3.98L10.69 0L9.52 0L9.52-8.58L10.69-8.58L10.69-5.06ZM19.45-1.03L24.61-1.03L24.61 0L18.28 0L18.28-8.58L24.52-8.58L24.52-7.59L19.45-7.59L19.45-4.92L24.14-4.92L24.14-3.89L19.45-3.89L19.45-1.03ZM27.52-8.58L31.83-1.64L31.83-8.58L32.95-8.58L32.95 0L31.64 0L27.28-6.94L27.23-6.94L27.23 0L26.11 0L26.11-8.58L27.52-8.58ZM41.16-3.61L38.53-3.61L38.53-4.59L42.28-4.59L42.28 0L41.53 0L41.25-1.08Q40.27 0.09 38.44 0.14L38.44 0.14Q36.70 0.14 35.77-0.75L35.77-0.75Q34.36-2.06 34.41-4.36L34.41-4.36Q34.73-8.63 38.48-8.81L38.48-8.81Q41.67-8.63 42.14-6L42.14-6L41.02-6Q40.55-7.78 38.44-7.83L38.44-7.83Q35.77-7.64 35.63-4.31L35.63-4.31Q35.63-0.75 38.48-0.75L38.48-0.75Q39.52-0.75 40.27-1.31L40.27-1.31Q41.20-2.06 41.16-3.61L41.16-3.61ZM47.58 0L44.11 0L44.11-8.58L47.63-8.58Q51.09-8.39 51.23-4.41L51.23-4.41Q51.05-0.09 47.58 0L47.58 0ZM47.44-7.64L45.28-7.64L45.28-0.98L47.53-0.98Q49.97-1.13 50.06-4.31L50.06-4.31Q50.02-7.55 47.44-7.64L47.44-7.64ZM58.36-3.19L58.36-8.58L59.53-8.58L59.53-3.05Q59.39 0.05 56.02 0.14L56.02 0.14Q52.88 0.05 52.73-2.86L52.73-2.86L52.73-8.58L53.91-8.58L53.91-3.19Q53.95-0.84 56.06-0.80L56.06-0.80Q58.36-0.84 58.36-3.19L58.36-3.19ZM71.58-8.58L68.34-3.47L68.34 0L67.17 0L67.17-3.47L63.94-8.58L65.30-8.58L67.73-4.45L70.22-8.58L71.58-8.58ZM78.28-3.19L78.28-8.58L79.45-8.58L79.45-3.05Q79.31 0.05 75.94 0.14L75.94 0.14Q72.80 0.05 72.66-2.86L72.66-2.86L72.66-8.58L73.83-8.58L73.83-3.19Q73.88-0.84 75.98-0.80L75.98-0.80Q78.28-0.84 78.28-3.19L78.28-3.19ZM82.55-1.03L87.70-1.03L87.70 0L81.38 0L81.38-8.58L87.61-8.58L87.61-7.59L82.55-7.59L82.55-4.92L87.23-4.92L87.23-3.89L82.55-3.89L82.55-1.03ZM93.98-7.13L93.94-7.13L91.97 0L90.75 0L88.50-8.58L89.72-8.58L91.36-1.59L91.41-1.59L93.33-8.58L94.59-8.58L96.52-1.59L96.56-1.59L98.16-8.58L99.42-8.58L97.17 0L95.95 0L93.98-7.13ZM106.17-3.19L106.17-8.58L107.34-8.58L107.34-3.05Q107.20 0.05 103.83 0.14L103.83 0.14Q100.69 0.05 100.55-2.86L100.55-2.86L100.55-8.58L101.72-8.58L101.72-3.19Q101.77-0.84 103.88-0.80L103.88-0.80Q106.17-0.84 106.17-3.19L106.17-3.19ZM116.06-8.58L112.83-3.47L112.83 0L111.66 0L111.66-3.47L108.42-8.58L109.78-8.58L112.22-4.45L114.70-8.58L116.06-8.58ZM123.89-4.27L123.89-4.27Q123.70-7.64 120.89-7.83L120.89-7.83Q118.03-7.69 117.89-4.27L117.89-4.27Q118.03-0.94 120.89-0.80L120.89-0.80Q123.70-0.98 123.89-4.27ZM125.06-4.27L125.06-4.27Q124.78 0 120.89 0.14L120.89 0.14Q116.95 0 116.67-4.27L116.67-4.27Q116.91-8.72 120.89-8.81L120.89-8.81Q124.78-8.67 125.06-4.27ZM132.09-3.19L132.09-8.58L133.27-8.58L133.27-3.05Q133.13 0.05 129.75 0.14L129.75 0.14Q126.61 0.05 126.47-2.86L126.47-2.86L126.47-8.58L127.64-8.58L127.64-3.19Q127.69-0.84 129.80-0.80L129.80-0.80Q132.09-0.84 132.09-3.19L132.09-3.19Z" transform="translate(-0.515625, 8.8125)"></path></g></g></g></g></g><defs v-gra="od"></defs></svg>